<svg width="20.000000" height="20.000000" viewBox="0 0 20 20" fill="none" xmlns="http://www.w3.org/2000/svg" xmlns:xlink="http://www.w3.org/1999/xlink">
	<desc>
			Created with Pixso.
	</desc>
	<defs/>
	<path id="Vector" d="M9 15.8501L6.4248 18.375C6.2417 18.5583 6.0127 18.6499 5.7373 18.6499C5.4624 18.6499 5.2334 18.55 5.0498 18.3501C4.8501 18.1667 4.75 17.9375 4.75 17.6626C4.75 17.3875 4.8501 17.1499 5.0498 16.95L9 13L9 11L7 11L3.0249 14.9751C2.8418 15.1584 2.6123 15.25 2.3374 15.25C2.0625 15.25 1.8252 15.1499 1.625 14.95C1.44189 14.7666 1.3501 14.5376 1.3501 14.2625C1.3501 13.9875 1.44189 13.7583 1.625 13.575L4.1499 11L0.975098 11C0.691895 11 0.458496 10.9041 0.274902 10.7124C0.0917969 10.5208 0 10.2834 0 10C0 9.71655 0.0957031 9.47925 0.287598 9.2876C0.479004 9.09595 0.716797 9 1 9L4.1499 9L1.625 6.44995C1.44189 6.2666 1.3501 6.0376 1.3501 5.76245C1.3501 5.48755 1.4502 5.25 1.6499 5.05005C1.8335 4.8667 2.0625 4.7749 2.3374 4.7749C2.6123 4.7749 2.8501 4.8667 3.0498 5.05005L7 9L9 9L9 7L5.0249 3.05005C4.8418 2.8667 4.75 2.63745 4.75 2.36255C4.75 2.0874 4.8501 1.8501 5.0498 1.6499C5.2334 1.46655 5.4624 1.375 5.7373 1.375C6.0127 1.375 6.2417 1.46655 6.4248 1.6499L9 4.1499L9 1C9 0.716553 9.0957 0.479248 9.2876 0.287598C9.479 0.0959473 9.7168 0 10 0C10.2832 0 10.521 0.0959473 10.7124 0.287598C10.9043 0.479248 11 0.716553 11 1L11 4.1499L13.5498 1.6499C13.7334 1.46655 13.9624 1.375 14.2373 1.375C14.5127 1.375 14.75 1.46655 14.9502 1.6499C15.1333 1.8501 15.2251 2.0874 15.2251 2.36255C15.2251 2.63745 15.1333 2.8667 14.9502 3.05005L11 7L11 9L13 9L16.9502 5.05005C17.1333 4.8667 17.3623 4.7749 17.6377 4.7749C17.9126 4.7749 18.1499 4.875 18.3501 5.07495C18.5332 5.2583 18.625 5.48755 18.625 5.76245C18.625 6.0376 18.5332 6.2666 18.3501 6.44995L15.8501 9L19 9C19.2832 9 19.521 9.09595 19.7124 9.2876C19.9043 9.47925 20 9.71655 20 10C20 10.2834 19.9043 10.5208 19.7124 10.7124C19.521 10.9041 19.2832 11 19 11L15.8501 11L18.3501 13.575C18.5332 13.7583 18.625 13.9875 18.625 14.2625C18.625 14.5376 18.5332 14.7666 18.3501 14.95C18.1499 15.1499 17.9126 15.25 17.6377 15.25C17.3623 15.25 17.1333 15.1499 16.9502 14.95L13 11L11 11L11 13L14.9502 16.9751C15.1333 17.1584 15.2251 17.3875 15.2251 17.6626C15.2251 17.9375 15.125 18.175 14.9248 18.375C14.7417 18.5583 14.5127 18.6499 14.2373 18.6499C13.9624 18.6499 13.7334 18.5583 13.5498 18.375L11 15.8501L11 19.0249C11 19.3083 10.9043 19.5417 10.7124 19.7251C10.521 19.9084 10.2832 20 10 20C9.7168 20 9.479 19.9041 9.2876 19.7124C9.0957 19.5208 9 19.2834 9 19L9 15.8501Z" fill="#000000" fill-opacity="1.000000" fill-rule="nonzero"/>
</svg>
