<svg width="20.037598" height="20.000000" viewBox="0 0 20.0376 20" fill="none" xmlns="http://www.w3.org/2000/svg" xmlns:xlink="http://www.w3.org/1999/xlink">
	<desc>
			Created with Pixso.
	</desc>
	<defs/>
	<path id="Vector" d="M16 7L15.2002 7.69995C14.9668 7.91675 14.6919 8.0249 14.375 8.0249C14.0581 8.0249 13.7832 7.93335 13.5498 7.75C13.3169 7.56665 13.1582 7.33325 13.0752 7.05005C12.9917 6.7666 13 6.46655 13.1001 6.1499L13.5 4.8999L12.6499 4.3999C12.3833 4.25 12.1958 4.03345 12.0874 3.75C11.979 3.46655 11.9668 3.18335 12.0498 2.8999C12.1333 2.6167 12.2998 2.39575 12.5498 2.23755C12.7998 2.0791 13.0835 2 13.3999 2L14.3999 2L14.7002 1.05005C14.7998 0.733398 14.9707 0.479248 15.2124 0.287598C15.4541 0.0959473 15.7168 0 16 0C16.2832 0 16.5459 0.0959473 16.7876 0.287598C17.0293 0.479248 17.2002 0.733398 17.2998 1.05005L17.6001 2L18.6001 2C18.9165 2 19.1958 2.0791 19.4375 2.23755C19.6792 2.39575 19.8501 2.6167 19.9502 2.8999C20.0669 3.19995 20.0669 3.4917 19.9502 3.7749C19.8335 4.05835 19.6499 4.2666 19.3999 4.3999L18.5 4.8999L18.8999 6.1499C19 6.46655 19.0083 6.77075 18.9248 7.0625C18.8418 7.35425 18.6831 7.58325 18.4502 7.75C18.2002 7.93335 17.9209 8.0249 17.6123 8.0249C17.3042 8.0249 17.0332 7.91675 16.7998 7.69995L16 7ZM16 5C16.2832 5 16.521 4.90405 16.7124 4.7124C16.9043 4.52075 17 4.28345 17 4C17 3.71655 16.9043 3.47925 16.7124 3.2876C16.521 3.09595 16.2832 3 16 3C15.7168 3 15.479 3.09595 15.2876 3.2876C15.0957 3.47925 15 3.71655 15 4C15 4.28345 15.0957 4.52075 15.2876 4.7124C15.479 4.90405 15.7168 5 16 5ZM11.7998 15.8999C12.1831 16.8999 12.0581 17.8333 11.4248 18.7C10.7915 19.5667 9.8999 20 8.75 20C8.2002 20 7.6792 19.8584 7.1875 19.575C6.6958 19.2917 6.3335 18.9167 6.1001 18.45C4.7168 18.6499 3.5708 18.2959 2.6626 17.3875C1.75439 16.4792 1.3833 15.3167 1.5498 13.8999C1.0498 13.6167 0.666504 13.2292 0.399902 12.7375C0.133301 12.2458 0 11.6833 0 11.05C0 10.0334 0.462402 9.2124 1.3877 8.5874C2.3125 7.9624 3.2168 7.83325 4.1001 8.19995L5.6499 8.8501C5.9834 8.33325 6.4248 7.9126 6.9751 7.5874C7.5249 7.26245 8.1167 7.08325 8.75 7.05005L8.75 5.75C8.75 5.53345 8.8208 5.35425 8.9624 5.2124C9.104 5.0708 9.2832 5 9.5 5C9.7168 5 9.896 5.0708 10.0376 5.2124C10.1792 5.35425 10.25 5.53345 10.25 5.75L10.25 7.25C10.8667 7.43335 11.375 7.72095 11.7749 8.11255C12.1748 8.50415 12.5166 9.05005 12.7998 9.75L14.25 9.75C14.4668 9.75 14.646 9.8208 14.7876 9.9624C14.9292 10.1042 15 10.2834 15 10.5C15 10.7166 14.9292 10.8958 14.7876 11.0376C14.646 11.1792 14.4668 11.25 14.25 11.25L12.9502 11.25C12.9165 11.8833 12.7456 12.4751 12.4375 13.0249C12.1294 13.575 11.7168 14.0166 11.2002 14.3501L11.7998 15.8999ZM5.6001 16.5C5.6001 16.05 5.6377 15.6125 5.7124 15.1875C5.7876 14.7625 5.8999 14.3501 6.0498 13.95C5.6665 14.1333 5.25439 14.2625 4.8125 14.3374C4.37061 14.4126 3.93311 14.4333 3.5 14.3999C3.5 15.05 3.6875 15.5625 4.0625 15.9375C4.4375 16.3125 4.9502 16.5 5.6001 16.5ZM3.75 12.3999C4.2832 12.3999 4.75439 12.3333 5.1626 12.2C5.5708 12.0667 6.1001 11.8 6.75 11.3999L3.75 10.1499C3.2666 9.94995 2.854 9.9541 2.5127 10.1626C2.1709 10.3708 2 10.7 2 11.1499C2 11.5833 2.1416 11.8999 2.4248 12.1001C2.7085 12.3 3.1499 12.3999 3.75 12.3999ZM8.75 18C9.1665 18 9.50439 17.8542 9.7627 17.5625C10.021 17.2708 10.0835 16.9666 9.9502 16.6499L8.6001 13.25C8.2832 13.7834 8.0376 14.3167 7.8623 14.8501C7.6875 15.3833 7.6001 15.8667 7.6001 16.3C7.6001 16.8501 7.6958 17.2708 7.8877 17.5625C8.0791 17.8542 8.3667 18 8.75 18ZM10.3999 12.45C10.5669 12.2834 10.7002 12.0625 10.7998 11.7876C10.8999 11.5125 10.9502 11.2251 10.9502 10.925C10.9502 10.3916 10.7749 9.94165 10.4248 9.57495C10.0752 9.20825 9.6416 9.0249 9.125 9.0249C8.8252 9.0249 8.5415 9.07495 8.2749 9.17505C8.0083 9.2749 7.7832 9.41675 7.6001 9.6001L9.5498 10.5L10.3999 12.45Z" fill="#000000" fill-opacity="1.000000" fill-rule="nonzero"/>
</svg>
