<svg width="18.000000" height="18.000000" viewBox="0 0 18 18" fill="none" xmlns="http://www.w3.org/2000/svg" xmlns:xlink="http://www.w3.org/1999/xlink">
	<desc>
			Created with Pixso.
	</desc>
	<defs/>
	<path id="Vector" d="M9 18C6.8999 18 5.0415 17.3625 3.4248 16.0874C1.80811 14.8125 0.758301 13.1833 0.274902 11.2C0.208496 10.95 0.258301 10.7209 0.424805 10.5125C0.591797 10.3042 0.816895 10.1833 1.1001 10.1499C1.3667 10.1167 1.6084 10.1667 1.8252 10.3C2.0415 10.4333 2.19189 10.6333 2.2749 10.8999C2.6748 12.3999 3.5 13.625 4.75 14.575C6 15.5249 7.4165 16 9 16C10.9502 16 12.604 15.3208 13.9624 13.9624C15.3208 12.6042 16 10.95 16 9C16 7.05005 15.3208 5.39575 13.9624 4.0376C12.604 2.6792 10.9502 2 9 2C7.8501 2 6.7749 2.2666 5.7749 2.80005C4.7749 3.33325 3.93311 4.06665 3.25 5L5 5C5.2832 5 5.521 5.09595 5.7124 5.2876C5.9043 5.47925 6 5.71655 6 6C6 6.28345 5.9043 6.52075 5.7124 6.7124C5.521 6.90405 5.2832 7 5 7L1 7C0.716797 7 0.479004 6.90405 0.287598 6.7124C0.0957031 6.52075 0 6.28345 0 6L0 2C0 1.71655 0.0957031 1.47925 0.287598 1.2876C0.479004 1.09595 0.716797 1 1 1C1.2832 1 1.521 1.09595 1.7124 1.2876C1.9043 1.47925 2 1.71655 2 2L2 3.3501C2.8501 2.28345 3.8877 1.45825 5.1123 0.875C6.3374 0.291748 7.6333 0 9 0C10.25 0 11.4209 0.237549 12.5127 0.712402C13.604 1.1875 14.5542 1.8291 15.3623 2.63745C16.1709 3.4458 16.8125 4.39575 17.2876 5.48755C17.7627 6.5791 18 7.75 18 9C18 10.25 17.7627 11.4209 17.2876 12.5125C16.8125 13.6042 16.1709 14.5542 15.3623 15.3625C14.5542 16.1709 13.604 16.8125 12.5127 17.2876C11.4209 17.7625 10.25 18 9 18ZM10 8.6001L12.5 11.1001C12.6831 11.2834 12.7749 11.5166 12.7749 11.8C12.7749 12.0833 12.6831 12.3167 12.5 12.5C12.3169 12.6833 12.0835 12.7749 11.7998 12.7749C11.5166 12.7749 11.2832 12.6833 11.1001 12.5L8.2998 9.69995C8.2002 9.6001 8.125 9.48755 8.0752 9.36255C8.0249 9.23755 8 9.1084 8 8.9751L8 5C8 4.71655 8.0957 4.47925 8.2876 4.2876C8.479 4.09595 8.7168 4 9 4C9.2832 4 9.521 4.09595 9.7124 4.2876C9.9043 4.47925 10 4.71655 10 5L10 8.6001Z" fill="#000000" fill-opacity="1.000000" fill-rule="nonzero"/>
</svg>
